<svg width="24" height="24" viewBox="0 0 24 24" fill="none" xmlns="http://www.w3.org/2000/svg">
<path d="M4.24 12.25C3.84461 11.8572 3.53134 11.3897 3.31845 10.8746C3.10556 10.3596 2.99731 9.80731 3 9.25C3 8.12283 3.44777 7.04182 4.2448 6.2448C5.04183 5.44777 6.12283 5 7.25 5C8.83 5 10.21 5.86 10.94 7.14H12.06C12.4311 6.48906 12.9681 5.94809 13.6163 5.57218C14.2645 5.19626 15.0007 4.99884 15.75 5C16.8772 5 17.9582 5.44777 18.7552 6.2448C19.5522 7.04182 20 8.12283 20 9.25C20 10.42 19.5 11.5 18.76 12.25L11.5 19.5L4.24 12.25ZM19.46 12.96C20.41 12 21 10.7 21 9.25C21 7.85761 20.4469 6.52225 19.4623 5.53769C18.4777 4.55312 17.1424 4 15.75 4C14 4 12.45 4.85 11.5 6.17C11.0151 5.4965 10.3766 4.94832 9.63748 4.57093C8.89835 4.19354 8.0799 3.99782 7.25 4C5.85761 4 4.52226 4.55312 3.53769 5.53769C2.55312 6.52225 2 7.85761 2 9.25C2 10.7 2.59 12 3.54 12.96L11.5 20.92L19.46 12.96Z" fill="black"/>
</svg>
