<svg width="24" height="24" viewBox="0 0 24 24" fill="none" xmlns="http://www.w3.org/2000/svg">
<path d="M21 12C21.0028 13.7868 20.4714 15.5336 19.474 17.016C18.6514 18.243 17.5391 19.2484 16.2356 19.9433C14.932 20.6382 13.4772 21.0011 12 21C10.5228 21.0011 9.06803 20.6382 7.76444 19.9433C6.46085 19.2484 5.34858 18.243 4.526 17.016C3.74273 15.8484 3.2439 14.5136 3.0695 13.1184C2.89511 11.7233 3.04999 10.3068 3.52175 8.98228C3.9935 7.65781 4.76899 6.46229 5.78607 5.49156C6.80314 4.52082 8.03349 3.80187 9.37851 3.39234C10.7235 2.98281 12.1458 2.8941 13.5312 3.13331C14.9167 3.37252 16.2269 3.933 17.3567 4.76982C18.4865 5.60664 19.4046 6.69653 20.0373 7.9521C20.67 9.20768 20.9997 10.594 21 12Z" stroke="black"/>
<path d="M13.5 9C13.5 9.39782 13.342 9.77936 13.0607 10.0607C12.7794 10.342 12.3978 10.5 12 10.5V11.5C12.3283 11.5 12.6534 11.4353 12.9567 11.3097C13.26 11.1841 13.5356 10.9999 13.7678 10.7678C13.9999 10.5356 14.1841 10.26 14.3097 9.95671C14.4353 9.65339 14.5 9.3283 14.5 9H13.5ZM12 10.5C11.6022 10.5 11.2206 10.342 10.9393 10.0607C10.658 9.77936 10.5 9.39782 10.5 9H9.5C9.5 9.3283 9.56467 9.65339 9.6903 9.95671C9.81594 10.26 10.0001 10.5356 10.2322 10.7678C10.7011 11.2366 11.337 11.5 12 11.5V10.5ZM10.5 9C10.5 8.60218 10.658 8.22064 10.9393 7.93934C11.2206 7.65804 11.6022 7.5 12 7.5V6.5C11.337 6.5 10.7011 6.76339 10.2322 7.23223C9.76339 7.70107 9.5 8.33696 9.5 9H10.5ZM12 7.5C12.3978 7.5 12.7794 7.65804 13.0607 7.93934C13.342 8.22064 13.5 8.60218 13.5 9H14.5C14.5 8.33696 14.2366 7.70107 13.7678 7.23223C13.2989 6.76339 12.663 6.5 12 6.5V7.5ZM5.166 17.856L4.686 17.714L4.609 17.975L4.786 18.182L5.166 17.856ZM18.834 17.856L19.214 18.182L19.391 17.975L19.313 17.714L18.834 17.856ZM9 15.5H15V14.5H9V15.5ZM9 14.5C8.03086 14.4999 7.08756 14.8126 6.31046 15.3917C5.53335 15.9708 4.96296 16.7853 4.686 17.714L5.645 17.999C5.86057 17.2767 6.30356 16.6434 6.90805 16.1931C7.51255 15.7428 8.24625 15.4997 9 15.5V14.5ZM12 20.5C10.7733 20.5013 9.56086 20.2364 8.44643 19.7237C7.332 19.2109 6.34209 18.4625 5.545 17.53L4.786 18.182C5.67705 19.2238 6.78344 20.0599 8.02887 20.6327C9.2743 21.2055 10.6292 21.5014 12 21.5V20.5ZM15 15.5C15.7539 15.4998 16.4877 15.743 17.0922 16.1935C17.6967 16.6439 18.1396 17.2775 18.355 18L19.313 17.714C19.036 16.7853 18.4667 15.9708 17.6895 15.3917C16.9124 14.8126 15.9691 14.4999 15 14.5V15.5ZM18.455 17.53C17.6579 18.4625 16.668 19.2109 15.5536 19.7237C14.4391 20.2364 13.2267 20.5013 12 20.5V21.5C13.3708 21.5014 14.7257 21.2055 15.9711 20.6327C17.2166 20.0599 18.323 19.2238 19.214 18.182L18.455 17.53Z" fill="black"/>
</svg>
